<svg xmlns="http://www.w3.org/2000/svg" viewBox="0 0 60 60"><title>chefs_knife--red2</title><path d="M60.48,2.75,60,3l-1.11.6h0C44,12.06,25.55,31.95,24.25,33.36l-.17-.17a.35.35,0,0,0-.51,0L2,54.79l7,7s.47.49.87.09c.9-.9.55-1.55.73-2.35a6.3,6.3,0,0,1,1.5-2.36l18-18L30,39.07c1.08-.72,4.58,1.94,7,4,1.06.9,1.92,1.68,2.29,2l0,0,.12.11.05,0C61.43,23.3,62,4.11,62,2.17h0c0-.1,0-.16,0-.16-.5.23-1,.48-1.51.75M8.08,54.9a.88.88,0,1,1-1.24,0,.88.88,0,0,1,1.24,0M38.39,41.61c-4.12-3.55-6.5-4.6-7.93-4.7L27,33.4C31.34,28.76,46,13.72,58.49,6.17c-1.46,7.37-6,20.67-20.1,35.44" transform="translate(-2 -2)" style="fill:#ff6e6e"/></svg>